<svg xmlns="http://www.w3.org/2000/svg" viewBox="0 0 360 100" width="360" height="100">

<path d="M20.88 73.512C30.032 73.512 36.176 67.624 36.176 58.664V42.536C36.176 33.64 30.032 27.688000000000002 20.88 27.688000000000002C11.728 27.688000000000002 5.648 33.64 5.648 42.536V58.664C5.648 67.624 11.728 73.512 20.88 73.512ZM20.88 69.608C14.48 69.608 10.192 65.32 10.192 58.856V42.471999999999994C10.192 36.008 14.48 31.656 20.88 31.656C27.344 31.656 31.632 36.008 31.632 42.471999999999994V58.856C31.632 65.32 27.344 69.608 20.88 69.608ZM69.904 48.68C68.304 43.495999999999995 64.27199999999999 40.104 58.192 40.104C54.736 40.104 51.855999999999995 41.512 50.0 44.072C49.872 44.263999999999996 49.68 44.2 49.68 44.007999999999996V41.256C49.68 40.872 49.424 40.616 49.04 40.616H45.775999999999996C45.391999999999996 40.616 45.135999999999996 40.872 45.135999999999996 41.256V84.776C45.135999999999996 85.16 45.391999999999996 85.416 45.775999999999996 85.416H49.04C49.424 85.416 49.68 85.16 49.68 84.776V69.672C49.68 69.48 49.808 69.416 50.0 69.608C51.855999999999995 72.104 54.736 73.512 58.192 73.512C64.4 73.512 68.496 70.056 70.032 64.744C70.608 62.568 70.8 60.007999999999996 70.8 56.808C70.8 53.544 70.608 50.92 69.904 48.68ZM64.78399999999999 64.872C63.696 67.624 61.135999999999996 69.544 57.68 69.544C54.288 69.544 51.92 67.56 50.96 64.744C50.128 63.016 49.744 61.096000000000004 49.744 56.808C49.744 52.584 50.128 50.664 50.832 49.0C51.92 46.120000000000005 54.224 44.072 57.744 44.072C61.328 44.072 64.08 46.056 65.104 49.064C65.80799999999999 50.792 66.19200000000001 52.647999999999996 66.19200000000001 56.808C66.19200000000001 61.224000000000004 65.744 63.144 64.78399999999999 64.872ZM104.272 51.367999999999995C103.312 44.456 99.408 40.104 91.408 40.104C85.072 40.104 80.464 43.751999999999995 79.056 49.256C78.544 51.239999999999995 78.416 53.544 78.416 56.68C78.416 60.263999999999996 78.736 63.144 79.632 65.512C81.424 70.44 85.52 73.448 91.664 73.576C97.296 73.576 101.712 71.016 103.824 66.984C104.016 66.6 103.888 66.28 103.568 66.088L101.072 64.616C100.688 64.36 100.432 64.488 100.176 64.872C98.64 67.816 95.888 69.608 92.048 69.544C87.312 69.544 84.176 67.048 83.344 63.336C83.024 62.376 82.96000000000001 60.775999999999996 82.96000000000001 58.792C82.96000000000001 58.6 83.088 58.536 83.21600000000001 58.536H103.888C104.272 58.536 104.528 58.28 104.528 57.896C104.592 54.696 104.528 53.096000000000004 104.272 51.367999999999995ZM91.408 44.072C95.824 44.072 98.768 46.632 99.6 50.344C99.856 51.176 99.98400000000001 52.712 100.048 54.44C100.048 54.632 99.92 54.696 99.792 54.696H83.21600000000001C83.088 54.696 82.96000000000001 54.632 82.96000000000001 54.44C83.024 52.712 83.152 51.176 83.47200000000001 50.088C84.304 46.568 87.12 44.072 91.408 44.072ZM125.84 40.168C122.06400000000001 40.168 119.056 41.448 117.136 44.2C117.008 44.328 116.88 44.2 116.88 44.007999999999996V41.256C116.88 40.872 116.624 40.616 116.24000000000001 40.616H112.976C112.592 40.616 112.336 40.872 112.336 41.256V72.36C112.336 72.744 112.592 73.0 112.976 73.0H116.24000000000001C116.624 73.0 116.88 72.744 116.88 72.36V52.007999999999996C116.88 47.336 120.08 44.135999999999996 124.75200000000001 44.135999999999996C129.36 44.135999999999996 132.43200000000002 47.4 132.43200000000002 52.135999999999996V72.36C132.43200000000002 72.744 132.688 73.0 133.072 73.0H136.336C136.72 73.0 136.976 72.744 136.976 72.36V51.239999999999995C136.976 44.519999999999996 132.56 40.168 125.84 40.168Z" fill="#F4F1EA"/>
<path d="M159.568 73.512C169.55200000000002 73.512 176.144 67.56 176.144 57.704V49.256C176.144 48.808 175.824 48.488 175.376 48.488H159.76000000000002C159.312 48.488 158.99200000000002 48.808 158.99200000000002 49.256V55.144C158.99200000000002 55.592 159.312 55.912 159.76000000000002 55.912H166.928C167.12 55.912 167.24800000000002 56.04 167.24800000000002 56.232V59.112C167.24800000000002 63.336 164.304 65.768 159.952 65.768C155.34400000000002 65.768 152.01600000000002 62.632 152.01600000000002 58.024V43.176C152.01600000000002 38.568 155.024 35.432 159.568 35.432C164.304 35.432 167.12 38.568 167.12 42.408V42.599999999999994C167.12 43.048 167.44 43.367999999999995 167.888 43.367999999999995H175.376C175.824 43.367999999999995 176.144 43.048 176.144 42.599999999999994V42.152C176.144 34.024 169.55200000000002 27.688000000000002 159.568 27.688000000000002C149.584 27.688000000000002 142.99200000000002 33.96 142.99200000000002 43.432V57.768C142.99200000000002 67.176 149.584 73.512 159.568 73.512ZM210.57600000000002 53.16C209.42400000000004 45.16 204.36800000000002 39.528 195.60000000000002 39.528C188.81600000000003 39.528 183.63200000000003 43.432 181.64800000000002 49.448C181.008 51.432 180.68800000000002 53.8 180.752 56.232C180.752 59.24 181.20000000000002 61.864 182.09600000000003 64.03999999999999C184.27200000000002 69.864 189.32800000000003 73.512 196.62400000000002 73.512C202.00000000000003 73.576 206.73600000000002 71.592 209.55200000000002 68.008C209.872 67.624 209.80800000000002 67.24 209.48800000000003 66.92L204.94400000000002 62.376C204.56000000000003 61.992 204.17600000000002 62.056 203.85600000000002 62.504C202.44800000000004 64.424 200.40000000000003 65.768 197.45600000000002 65.832C193.74400000000003 65.832 191.69600000000003 64.424 190.67200000000003 62.248C190.35200000000003 61.480000000000004 190.09600000000003 60.647999999999996 189.90400000000002 59.688C189.84000000000003 59.496 190.032 59.368 190.22400000000002 59.368H210.00000000000003C210.44800000000004 59.368 210.76800000000003 59.112 210.83200000000002 58.6C210.89600000000002 56.68 210.83200000000002 54.888 210.57600000000002 53.16ZM195.60000000000002 47.336C198.48000000000002 47.336 200.46400000000003 48.808 201.23200000000003 51.367999999999995C201.36 51.879999999999995 201.42400000000004 52.456 201.55200000000002 53.16C201.616 53.352000000000004 201.48800000000003 53.480000000000004 201.29600000000002 53.480000000000004H190.22400000000002C190.032 53.480000000000004 189.90400000000002 53.352000000000004 189.90400000000002 53.16C190.032 52.391999999999996 190.16000000000003 51.751999999999995 190.35200000000003 51.111999999999995C191.18400000000003 48.68 192.848 47.336 195.60000000000002 47.336ZM224.20800000000003 73.0H231.95200000000003C232.4 73.0 232.72000000000003 72.808 232.848 72.36L237.20000000000002 55.208C237.264 54.952 237.52 54.952 237.584 55.208L242.51200000000003 72.36C242.64000000000001 72.744 242.96 73.0 243.40800000000002 73.0H251.15200000000002C251.60000000000002 73.0 251.85600000000002 72.744 251.984 72.36L261.32800000000003 41.0C261.456 40.488 261.20000000000005 40.168 260.688 40.168L253.008 40.04C252.56 40.04 252.24 40.232 252.11200000000002 40.68L247.12 60.072C247.056 60.328 246.8 60.328 246.73600000000002 60.072L241.68 40.68C241.55200000000002 40.232 241.23200000000003 40.04 240.78400000000002 40.04H234.06400000000002C233.616 40.04 233.29600000000002 40.232 233.168 40.68L228.36800000000002 60.007999999999996C228.30400000000003 60.263999999999996 228.048 60.263999999999996 227.984 60.007999999999996L223.376 40.68C223.24800000000002 40.232 222.92800000000003 40.04 222.48000000000002 40.04H214.73600000000002C214.22400000000002 40.04 213.96800000000002 40.424 214.096 40.936L223.312 72.36C223.44000000000003 72.744 223.76000000000002 73.0 224.20800000000003 73.0ZM294.8 53.16C293.648 45.16 288.592 39.528 279.824 39.528C273.04 39.528 267.856 43.432 265.872 49.448C265.232 51.432 264.91200000000003 53.8 264.976 56.232C264.976 59.24 265.42400000000004 61.864 266.32 64.03999999999999C268.49600000000004 69.864 273.552 73.512 280.848 73.512C286.224 73.576 290.96000000000004 71.592 293.776 68.008C294.096 67.624 294.03200000000004 67.24 293.712 66.92L289.168 62.376C288.784 61.992 288.40000000000003 62.056 288.08000000000004 62.504C286.672 64.424 284.624 65.768 281.68 65.832C277.968 65.832 275.92 64.424 274.896 62.248C274.576 61.480000000000004 274.32 60.647999999999996 274.128 59.688C274.064 59.496 274.25600000000003 59.368 274.44800000000004 59.368H294.224C294.672 59.368 294.992 59.112 295.05600000000004 58.6C295.12 56.68 295.05600000000004 54.888 294.8 53.16ZM279.824 47.336C282.704 47.336 284.688 48.808 285.456 51.367999999999995C285.584 51.879999999999995 285.648 52.456 285.776 53.16C285.84000000000003 53.352000000000004 285.712 53.480000000000004 285.52 53.480000000000004H274.44800000000004C274.25600000000003 53.480000000000004 274.128 53.352000000000004 274.128 53.16C274.25600000000003 52.391999999999996 274.384 51.751999999999995 274.576 51.111999999999995C275.408 48.68 277.072 47.336 279.824 47.336ZM316.944 39.656C313.80800000000005 39.656 311.44000000000005 41.128 309.84000000000003 43.495999999999995C309.71200000000005 43.688 309.52000000000004 43.56 309.52000000000004 43.304V40.872C309.52000000000004 40.424 309.20000000000005 40.104 308.752 40.104H301.264C300.81600000000003 40.104 300.49600000000004 40.424 300.49600000000004 40.872V72.232C300.49600000000004 72.68 300.81600000000003 73.0 301.264 73.0H308.752C309.20000000000005 73.0 309.52000000000004 72.68 309.52000000000004 72.232V54.76C309.52000000000004 51.304 312.14400000000006 49.32 315.02400000000006 49.064C316.49600000000004 48.808 317.84000000000003 49.0 318.73600000000005 49.256C319.24800000000005 49.448 319.56800000000004 49.32 319.63200000000006 48.808L320.91200000000003 41.512C320.97600000000006 41.128 320.91200000000003 40.744 320.528 40.552C319.76000000000005 40.04 318.60800000000006 39.656 316.944 39.656ZM325.904 73.0H333.392C333.84000000000003 73.0 334.16 72.68 334.16 72.232V62.888C334.16 62.76 334.22400000000005 62.632 334.288 62.504L338.384 57.384C338.512 57.192 338.76800000000003 57.256 338.832 57.448L345.232 72.424C345.42400000000004 72.872 345.744 73.0 346.12800000000004 73.0H353.93600000000004C354.512 73.0 354.76800000000003 72.68 354.512 72.104L344.976 51.816C344.91200000000003 51.688 344.91200000000003 51.56 345.04 51.367999999999995L353.232 41.064C353.61600000000004 40.552 353.42400000000004 40.104 352.784 40.104H344.208C343.824 40.104 343.504 40.296 343.24800000000005 40.552L334.54400000000004 50.664C334.35200000000003 50.855999999999995 334.16 50.792 334.16 50.536V28.967999999999996C334.16 28.519999999999996 333.84000000000003 28.199999999999996 333.392 28.199999999999996H325.904C325.456 28.199999999999996 325.136 28.519999999999996 325.136 28.967999999999996V72.232C325.136 72.68 325.456 73.0 325.904 73.0Z" fill="#F4F1EA"/>
</svg>
